<?xml version="1.0" standalone="no"?>
<!DOCTYPE svg PUBLIC "-//W3C//DTD SVG 20010904//EN"
 "http://www.w3.org/TR/2001/REC-SVG-20010904/DTD/svg10.dtd">
<svg version="1.0" xmlns="http://www.w3.org/2000/svg"
 width="2048.000000pt" height="2048.000000pt" viewBox="0 0 2048.000000 2048.000000"
 preserveAspectRatio="xMidYMid meet">
<metadata>
Created by potrace 1.14, written by Peter Selinger 2001-2017
</metadata>
<g transform="translate(0.000000,2048.000000) scale(0.100000,-0.100000)"
fill="#000000" stroke="none">
<path d="M2346 12898 c2 -2680 5 -4897 8 -4927 2 -30 7 -93 11 -140 3 -47 8
-102 10 -121 12 -114 18 -168 21 -193 6 -51 24 -182 29 -207 2 -14 9 -54 15
-90 17 -106 19 -119 51 -270 17 -80 44 -194 61 -255 16 -60 31 -117 33 -125 4
-22 62 -201 100 -310 118 -339 263 -647 463 -980 78 -131 252 -385 329 -480
47 -60 159 -197 168 -206 205 -228 365 -388 514 -514 30 -25 63 -53 75 -64 11
-10 37 -30 56 -45 19 -14 41 -31 48 -38 72 -68 473 -341 609 -415 32 -17 63
-35 69 -39 31 -25 357 -189 494 -249 359 -159 849 -312 1230 -385 54 -10 136
-25 165 -30 56 -9 90 -15 110 -19 11 -2 63 -9 115 -16 52 -6 106 -13 120 -15
105 -15 237 -27 460 -41 155 -10 766 -11 915 -1 171 11 288 21 371 32 21 2 62
7 89 10 28 3 67 8 87 11 20 2 90 -2 155 -10 65 -8 150 -18 188 -21 39 -3 84
-8 100 -10 215 -26 971 -26 1244 0 20 1 72 6 116 10 44 4 91 9 105 11 14 1 45
5 70 8 25 2 66 7 91 11 25 3 99 -1 165 -9 107 -13 173 -21 284 -31 287 -26
946 -26 1250 0 118 10 198 17 225 21 17 2 53 6 80 9 53 6 74 9 145 21 25 4 56
8 70 9 27 2 102 15 135 22 11 2 29 6 40 7 101 17 267 53 380 82 55 13 110 27
122 30 144 30 653 211 863 306 206 94 359 174 635 332 110 63 506 341 535 375
3 3 28 24 55 46 262 209 545 506 778 815 48 63 90 120 94 125 28 36 157 233
193 295 25 41 48 77 52 78 5 2 8 7 8 11 0 4 26 54 58 112 75 135 179 347 231
474 23 55 46 109 51 120 38 82 153 400 193 535 48 160 103 377 127 505 4 22
13 65 19 95 6 30 13 70 16 88 3 17 7 44 10 60 11 71 15 92 24 167 6 44 13 103
16 130 3 28 7 70 9 95 35 339 40 901 12 1230 -10 114 -18 195 -21 209 -1 9 -6
47 -10 86 -4 38 -8 72 -10 75 -1 3 -6 32 -9 65 -10 82 -12 98 -45 270 -26 133
-27 140 -63 285 -16 69 -31 130 -32 135 -18 90 -160 493 -233 665 -69 161
-215 455 -268 540 -12 19 -42 69 -65 110 -92 158 -292 447 -399 576 -14 17
-35 42 -45 55 -101 126 -368 403 -478 495 -39 32 -78 66 -87 75 -84 84 -401
314 -602 436 -424 259 -882 448 -1373 568 -134 32 -378 79 -476 90 -25 3 -61
7 -80 10 -130 17 -154 19 -365 31 -258 16 -620 6 -830 -21 -22 -3 -62 -7 -89
-10 -44 -6 -160 -26 -311 -56 -53 -10 -77 -8 -214 15 -85 15 -177 29 -205 32
-28 2 -62 7 -74 10 -13 2 -52 7 -85 10 -34 3 -78 7 -97 9 -263 28 -779 23
-1015 -10 -16 -3 -55 -7 -85 -11 l-56 -6 1 2034 c0 1118 -1 2041 -3 2051 -4
16 -204 17 -4026 17 l-4022 0 2 -4872z"/>
</g>
</svg>
